<svg data-v-423bf9ae="" xmlns="http://www.w3.org/2000/svg" viewBox="0 0 272.30321245519053 163" class="iconAbove"><!----><!----><!----><g data-v-423bf9ae="" id="420491a9-ec99-4d6a-b02e-8ec0e4d67534" fill="white" transform="matrix(5.830903811703725,0,0,5.830903811703725,-6.530615660241892,75.8279886503488)"><path d="M1.26 9.70L2.88 10.64L6.37 10.64L6.37 13.69L2.52 13.69L2.52 12.57L1.12 12.57L1.12 14.01L2.74 14.95L6.15 14.95L7.77 14.01L7.77 10.18L6.15 9.24L2.66 9.24L2.66 6.27L6.37 6.27L6.37 7.39L7.77 7.39L7.77 5.95L6.15 5.01L2.88 5.01L1.26 5.95ZM16.10 14.01L16.10 8.75L14.48 7.81L11.77 7.81L10.15 8.75L10.15 14.01L11.77 14.95L14.48 14.95ZM11.51 9.03L14.74 9.03L14.74 13.73L11.51 13.73ZM18.48 9.70L20.10 10.64L23.59 10.64L23.59 13.69L19.74 13.69L19.74 12.57L18.34 12.57L18.34 14.01L19.96 14.95L23.37 14.95L24.99 14.01L24.99 10.18L23.37 9.24L19.88 9.24L19.88 6.27L23.59 6.27L23.59 7.39L24.99 7.39L24.99 5.95L23.37 5.01L20.10 5.01L18.48 5.95ZM28.45 12.01L31.26 12.01L31.26 13.73L28.45 13.73ZM28.71 14.95L30.27 14.95L31.26 14.38L32.26 14.95L32.62 14.95L32.62 8.82L31.00 7.88L27.79 7.88L27.79 9.10L31.26 9.10L31.26 10.79L28.71 10.79L27.09 11.73L27.09 14.01ZM36.22 4.66L34.86 4.66L34.86 14.88L36.22 14.88L36.22 13.22L37.24 12.01L39.51 14.88L41.17 14.88L38.05 11.05L40.75 7.88L39.13 7.88L36.25 11.37L36.22 11.37ZM47.82 13.66L43.65 13.66L43.65 11.86L47.82 11.86L47.82 8.75L46.20 7.81L43.92 7.81L42.29 8.75L42.29 13.94L43.92 14.88L47.82 14.88ZM43.65 9.03L46.47 9.03L46.47 10.64L43.65 10.64Z"></path></g><!----><g data-v-423bf9ae="" id="2d9339c5-699e-4226-b380-b49a5db1ce26" transform="matrix(1.1747523371103263,0,0,1.1747523371103263,83.30289917186423,-7.2134761051378575)" stroke="none" fill="white"><path clip-rule="evenodd" d="M54.932 32.672h-.454c-.834 0-1.644.038-2.425.113-3.208.303-6.062 1.099-8.562 2.387-.253.151-.518.303-.795.455v-.038c-2.804 1.667-4.281 3.624-4.433 5.871v.191c.152 2.222 1.629 4.155 4.433 5.796.126.075.252.153.378.227a21.9 21.9 0 0 0 3.751 1.593 26.36 26.36 0 0 0 4.394.945c1.188.127 2.425.189 3.713.189 1.112 0 2.173-.049 3.182-.149.178-.024.342-.04.493-.04 1.566-.2 3.044-.517 4.432-.945.81-.254 1.579-.543 2.312-.87.48-.229.947-.467 1.401-.723.151-.073.278-.151.38-.227 2.196-1.288 3.598-2.74 4.205-4.357a5.39 5.39 0 0 0 .227-1.553v-.113c-.176-2.223-1.652-4.155-4.432-5.796-3.36-1.971-7.426-2.956-12.2-2.956zm28.906 46.861c.529.329.884.785 1.062 1.364a2.087 2.087 0 0 1-.229 1.555 2.254 2.254 0 0 1-1.286 1.023 2.245 2.245 0 0 1-1.668-.191l-21.33-11.441a34.6 34.6 0 0 1-5.455.418c-3.461 0-6.618-.453-9.471-1.363a24.083 24.083 0 0 1-5.077-2.198c-4.319-2.576-6.529-5.682-6.63-9.318v-.341V58.7v-1.099L6.818 43.165c-.303-.177-.607-.34-.91-.493a69.635 69.635 0 0 0-1.023-.644l.038-.038a4.504 4.504 0 0 1-1.97-2.728c-.328-1.313-.164-2.538.493-3.674.657-1.162 1.629-1.92 2.917-2.273 1.188-.303 2.311-.203 3.373.303v.038l.682.378c.126.051.252.114.379.19.303.177.593.354.871.53l72.17 44.779zm-7.766-36.178V55.478c-.052 2.374-.127 4.103-.228 5.19l11.819 13.865c.43.454.632.986.605 1.591a2.086 2.086 0 0 1-.719 1.439c-.43.405-.935.594-1.515.567a2.25 2.25 0 0 1-1.555-.681l-11.29-11.63c-.757.758-1.666 1.49-2.728 2.197L33.678 45.211v-3.485h.076v-.189-.151c-.025-3.763 2.147-6.958 6.516-9.585L25.381 16.457l-.757-.758-.758-.909.038-.038c-.758-.909-1.099-1.969-1.023-3.182.076-1.338.606-2.462 1.592-3.372.959-.884 2.108-1.3 3.447-1.25 1.212.076 2.26.517 3.145 1.326h-.038c.177.202.354.392.53.568l.303.303c.228.253.455.518.682.796l16.025 18.753c1.995-.379 4.117-.568 6.364-.568 5.657 0 10.493 1.2 14.511 3.599 3.813 2.222 5.984 4.887 6.516 7.994.025.151.063 1.363.114 3.636zm-21.254-8.751c2.728.025 5.052.619 6.972 1.781 2.018 1.162 3.03 2.576 3.03 4.243 0 .43-.076.833-.229 1.213-.327 1.06-1.135 2.007-2.423 2.841l-.378.228c-.759.43-1.579.795-2.463 1.098-1.415.431-2.968.645-4.66.645h-.113c-1.744 0-3.321-.214-4.736-.645a15.787 15.787 0 0 1-2.5-1.098c-1.945-1.163-2.943-2.565-2.993-4.207v-.151c.025-1.111.518-2.122 1.478-3.03a7.354 7.354 0 0 1 1.516-1.137c1.768-1.035 3.863-1.616 6.288-1.743.303-.025.619-.038.948-.038h.263z"></path></g><!----></svg>