<svg data-v-423bf9ae="" xmlns="http://www.w3.org/2000/svg" viewBox="0 0 241.5701080316937 60" class="font"><!----><!----><!----><g data-v-423bf9ae="" id="42b177ee-e78c-43a7-ab63-237f795c7fee" fill="black" transform="matrix(5.60747673547115,0,0,5.60747673547115,-3.9813120451617294,-16.87850563554683)"><path d="M3.92 13.71L3.92 13.71Q3.05 13.71 2.16 13.52L2.16 13.52L2.16 13.52Q1.26 13.33 0.71 13.08L0.71 13.08L0.90 11.66L0.90 11.66Q1.60 12.00 2.48 12.25L2.48 12.25L2.48 12.25Q3.36 12.50 4.23 12.50L4.23 12.50L4.23 12.50Q5.21 12.50 5.75 12.14L5.75 12.14L5.75 12.14Q6.29 11.79 6.29 11.07L6.29 11.07L6.29 11.07Q6.29 10.54 6.01 10.18L6.01 10.18L6.01 10.18Q5.74 9.83 5.21 9.58L5.21 9.58L5.21 9.58Q4.69 9.34 3.75 9.06L3.75 9.06L3.75 9.06Q2.80 8.78 2.17 8.46L2.17 8.46L2.17 8.46Q1.54 8.13 1.16 7.57L1.16 7.57L1.16 7.57Q0.77 7.01 0.77 6.16L0.77 6.16L0.77 6.16Q0.77 4.97 1.69 4.24L1.69 4.24L1.69 4.24Q2.60 3.51 4.27 3.51L4.27 3.51L4.27 3.51Q5.17 3.51 5.97 3.71L5.97 3.71L5.97 3.71Q6.78 3.91 7.38 4.19L7.38 4.19L7.24 5.60L7.24 5.60Q6.45 5.14 5.73 4.93L5.73 4.93L5.73 4.93Q5.00 4.72 4.21 4.72L4.21 4.72L4.21 4.72Q3.30 4.72 2.77 5.05L2.77 5.05L2.77 5.05Q2.23 5.39 2.23 6.09L2.23 6.09L2.23 6.09Q2.23 6.57 2.47 6.87L2.47 6.87L2.47 6.87Q2.72 7.18 3.18 7.40L3.18 7.40L3.18 7.40Q3.64 7.62 4.47 7.87L4.47 7.87L4.47 7.87Q6.12 8.37 6.93 9.06L6.93 9.06L6.93 9.06Q7.74 9.76 7.74 10.98L7.74 10.98L7.74 10.98Q7.74 12.26 6.78 12.98L6.78 12.98L6.78 12.98Q5.81 13.71 3.92 13.71L3.92 13.71ZM12.03 13.65L12.03 13.65Q10.98 13.65 10.21 13.18L10.21 13.18L10.21 13.18Q9.44 12.71 9.03 11.90L9.03 11.90L9.03 11.90Q8.62 11.09 8.62 10.08L8.62 10.08L8.62 10.08Q8.62 9.07 9.03 8.26L9.03 8.26L9.03 8.26Q9.44 7.45 10.21 6.98L10.21 6.98L10.21 6.98Q10.98 6.51 12.03 6.51L12.03 6.51L12.03 6.51Q13.06 6.51 13.84 6.98L13.84 6.98L13.84 6.98Q14.62 7.45 15.02 8.26L15.02 8.26L15.02 8.26Q15.43 9.07 15.43 10.08L15.43 10.08L15.43 10.08Q15.43 11.09 15.02 11.90L15.02 11.90L15.02 11.90Q14.62 12.71 13.84 13.18L13.84 13.18L13.84 13.18Q13.06 13.65 12.03 13.65L12.03 13.65ZM12.03 12.53L12.03 12.53Q13.03 12.53 13.59 11.89L13.59 11.89L13.59 11.89Q14.14 11.24 14.14 10.08L14.14 10.08L14.14 10.08Q14.14 8.92 13.59 8.27L13.59 8.27L13.59 8.27Q13.03 7.63 12.03 7.63L12.03 7.63L12.03 7.63Q11.02 7.63 10.46 8.27L10.46 8.27L10.46 8.27Q9.91 8.92 9.91 10.08L9.91 10.08L9.91 10.08Q9.91 11.24 10.46 11.89L10.46 11.89L10.46 11.89Q11.02 12.53 12.03 12.53L12.03 12.53ZM19.80 13.71L19.80 13.71Q18.93 13.71 18.03 13.52L18.03 13.52L18.03 13.52Q17.14 13.33 16.59 13.08L16.59 13.08L16.77 11.66L16.77 11.66Q17.47 12.00 18.35 12.25L18.35 12.25L18.35 12.25Q19.24 12.50 20.10 12.50L20.10 12.50L20.10 12.50Q21.08 12.50 21.62 12.14L21.62 12.14L21.62 12.14Q22.16 11.79 22.16 11.07L22.16 11.07L22.16 11.07Q22.16 10.54 21.89 10.18L21.89 10.18L21.89 10.18Q21.62 9.83 21.09 9.58L21.09 9.58L21.09 9.58Q20.57 9.34 19.63 9.06L19.63 9.06L19.63 9.06Q18.68 8.78 18.05 8.46L18.05 8.46L18.05 8.46Q17.42 8.13 17.03 7.57L17.03 7.57L17.03 7.57Q16.65 7.01 16.65 6.16L16.65 6.16L16.65 6.16Q16.65 4.97 17.56 4.24L17.56 4.24L17.56 4.24Q18.48 3.51 20.15 3.51L20.15 3.51L20.15 3.51Q21.04 3.51 21.85 3.71L21.85 3.71L21.85 3.71Q22.65 3.91 23.25 4.19L23.25 4.19L23.11 5.60L23.11 5.60Q22.33 5.14 21.60 4.93L21.60 4.93L21.60 4.93Q20.87 4.72 20.09 4.72L20.09 4.72L20.09 4.72Q19.18 4.72 18.64 5.05L18.64 5.05L18.64 5.05Q18.10 5.39 18.10 6.09L18.10 6.09L18.10 6.09Q18.10 6.57 18.35 6.87L18.35 6.87L18.35 6.87Q18.59 7.18 19.05 7.40L19.05 7.40L19.05 7.40Q19.52 7.62 20.34 7.87L20.34 7.87L20.34 7.87Q21.99 8.37 22.81 9.06L22.81 9.06L22.81 9.06Q23.62 9.76 23.62 10.98L23.62 10.98L23.62 10.98Q23.62 12.26 22.65 12.98L22.65 12.98L22.65 12.98Q21.69 13.71 19.80 13.71L19.80 13.71ZM26.50 13.65L26.50 13.65Q25.55 13.65 24.97 13.09L24.97 13.09L24.97 13.09Q24.39 12.53 24.39 11.66L24.39 11.66L24.39 11.66Q24.39 10.36 25.62 9.80L25.62 9.80L25.62 9.80Q26.85 9.24 28.49 9.21L28.49 9.21L28.49 9.21Q28.49 8.29 28.13 7.96L28.13 7.96L28.13 7.96Q27.78 7.63 26.99 7.63L26.99 7.63L26.99 7.63Q26.56 7.63 26.12 7.76L26.12 7.76L26.12 7.76Q25.69 7.90 25.19 8.25L25.19 8.25L25.00 7.22L25.00 7.22Q25.42 6.90 26.04 6.71L26.04 6.71L26.04 6.71Q26.66 6.51 27.33 6.51L27.33 6.51L27.33 6.51Q28.21 6.51 28.73 6.82L28.73 6.82L28.73 6.82Q29.26 7.13 29.50 7.84L29.50 7.84L29.50 7.84Q29.75 8.55 29.75 9.80L29.75 9.80L29.75 11.20L29.75 11.20Q29.75 11.76 29.80 12.05L29.80 12.05L29.80 12.05Q29.85 12.33 30.02 12.49L30.02 12.49L30.02 12.49Q30.18 12.64 30.53 12.64L30.53 12.64L30.66 12.64L30.46 13.65L30.37 13.65L30.37 13.65Q29.78 13.65 29.44 13.54L29.44 13.54L29.44 13.54Q29.11 13.43 28.93 13.22L28.93 13.22L28.93 13.22Q28.76 13.01 28.60 12.64L28.60 12.64L28.60 12.64Q27.73 13.65 26.50 13.65L26.50 13.65ZM26.74 12.64L26.74 12.64Q27.24 12.64 27.71 12.39L27.71 12.39L27.71 12.39Q28.18 12.14 28.49 11.72L28.49 11.72L28.49 10.08L28.49 10.08Q26.98 10.14 26.33 10.48L26.33 10.48L26.33 10.48Q25.68 10.82 25.68 11.59L25.68 11.59L25.68 11.59Q25.68 12.12 25.96 12.38L25.96 12.38L25.96 12.38Q26.25 12.64 26.74 12.64L26.74 12.64ZM31.61 13.51L31.61 3.01L32.87 3.01L32.87 9.74L35.39 6.65L36.93 6.65L34.20 9.84L37.00 13.51L35.46 13.51L32.87 10.02L32.87 13.51L31.61 13.51ZM41.19 13.65L41.19 13.65Q40.01 13.65 39.18 13.17L39.18 13.17L39.18 13.17Q38.35 12.68 37.91 11.86L37.91 11.86L37.91 11.86Q37.48 11.03 37.48 10.02L37.48 10.02L37.48 10.02Q37.48 9.06 37.88 8.25L37.88 8.25L37.88 8.25Q38.28 7.45 39.04 6.98L39.04 6.98L39.04 6.98Q39.80 6.51 40.84 6.51L40.84 6.51L40.84 6.51Q42.15 6.51 42.97 7.28L42.97 7.28L42.97 7.28Q43.79 8.05 43.79 9.41L43.79 9.41L43.79 9.41Q43.79 9.76 43.74 10.08L43.74 10.08L38.77 10.08L38.77 10.08Q38.89 11.41 39.58 11.97L39.58 11.97L39.58 11.97Q40.26 12.53 41.34 12.53L41.34 12.53L41.34 12.53Q42.42 12.53 43.32 12.12L43.32 12.12L43.48 13.12L43.48 13.12Q42.29 13.65 41.19 13.65L41.19 13.65ZM38.88 9.21L42.49 9.21L42.49 9.21Q42.49 8.47 42.07 8.05L42.07 8.05L42.07 8.05Q41.65 7.63 40.81 7.63L40.81 7.63L40.81 7.63Q40.00 7.63 39.54 8.03L39.54 8.03L39.54 8.03Q39.07 8.43 38.88 9.21L38.88 9.21Z"></path></g><!----><!----></svg>