<svg data-v-423bf9ae="" xmlns="http://www.w3.org/2000/svg" viewBox="0 0 272.2953702504854 60" class="font"><!----><!----><!----><g data-v-423bf9ae="" id="9bcc6608-eccb-4a2a-b37f-641bba41d8eb" fill="black" transform="matrix(5.338078400515052,0,0,5.338078400515052,-2.188609189364513,-14.359430725995622)"><path d="M4.59 13.93L4.59 13.93Q3.43 13.93 2.49 13.59L2.49 13.59L2.49 13.59Q1.55 13.26 0.92 12.67L0.92 12.67L0.92 12.67Q0.76 12.50 0.66 12.24L0.66 12.24L0.66 12.24Q0.56 11.98 0.56 11.70L0.56 11.70L0.56 11.70Q0.56 11.17 0.94 10.80L0.94 10.80L0.94 10.80Q1.32 10.43 1.83 10.43L1.83 10.43L1.83 10.43Q2.17 10.43 2.45 10.59L2.45 10.59L2.45 10.59Q2.73 10.75 2.90 11.02L2.90 11.02L2.90 11.02Q3.18 11.44 3.63 11.66L3.63 11.66L3.63 11.66Q4.07 11.87 4.65 11.87L4.65 11.87L4.65 11.87Q5.49 11.87 5.91 11.56L5.91 11.56L5.91 11.56Q6.33 11.26 6.33 10.72L6.33 10.72L6.33 10.72Q6.33 10.32 6.05 10.04L6.05 10.04L6.05 10.04Q5.77 9.77 5.05 9.62L5.05 9.62L3.33 9.25L3.33 9.25Q1.85 8.93 1.13 8.17L1.13 8.17L1.13 8.17Q0.41 7.41 0.41 6.12L0.41 6.12L0.41 6.12Q0.41 5.19 0.90 4.45L0.90 4.45L0.90 4.45Q1.40 3.71 2.35 3.29L2.35 3.29L2.35 3.29Q3.30 2.87 4.62 2.87L4.62 2.87L4.62 2.87Q6.76 2.87 7.95 3.99L7.95 3.99L7.95 3.99Q8.30 4.33 8.30 4.91L8.30 4.91L8.30 4.91Q8.30 5.42 7.95 5.78L7.95 5.78L7.95 5.78Q7.59 6.15 7.08 6.15L7.08 6.15L7.08 6.15Q6.76 6.15 6.49 5.99L6.49 5.99L6.49 5.99Q6.22 5.82 6.05 5.57L6.05 5.57L6.05 5.57Q5.61 4.87 4.61 4.87L4.61 4.87L4.61 4.87Q3.84 4.87 3.47 5.15L3.47 5.15L3.47 5.15Q3.11 5.43 3.11 5.84L3.11 5.84L3.11 5.84Q3.11 6.26 3.40 6.54L3.40 6.54L3.40 6.54Q3.68 6.82 4.44 6.97L4.44 6.97L6.15 7.34L6.15 7.34Q7.71 7.67 8.43 8.46L8.43 8.46L8.43 8.46Q9.14 9.24 9.14 10.47L9.14 10.47L9.14 10.47Q9.14 11.42 8.69 12.20L8.69 12.20L8.69 12.20Q8.23 12.98 7.21 13.45L7.21 13.45L7.21 13.45Q6.19 13.93 4.59 13.93L4.59 13.93ZM13.66 13.90L13.66 13.90Q12.40 13.90 11.51 13.38L11.51 13.38L11.51 13.38Q10.61 12.87 10.15 11.96L10.15 11.96L10.15 11.96Q9.69 11.05 9.69 9.90L9.69 9.90L9.69 9.90Q9.69 8.72 10.16 7.81L10.16 7.81L10.16 7.81Q10.64 6.90 11.55 6.38L11.55 6.38L11.55 6.38Q12.46 5.87 13.72 5.87L13.72 5.87L13.72 5.87Q14.98 5.87 15.89 6.38L15.89 6.38L15.89 6.38Q16.80 6.90 17.26 7.81L17.26 7.81L17.26 7.81Q17.72 8.72 17.72 9.87L17.72 9.87L17.72 9.87Q17.72 11.03 17.24 11.95L17.24 11.95L17.24 11.95Q16.76 12.87 15.84 13.38L15.84 13.38L15.84 13.38Q14.92 13.90 13.66 13.90L13.66 13.90ZM13.71 12.04L13.71 12.04Q14.41 12.04 14.76 11.47L14.76 11.47L14.76 11.47Q15.11 10.89 15.11 9.88L15.11 9.88L15.11 9.88Q15.11 8.88 14.76 8.30L14.76 8.30L14.76 8.30Q14.41 7.73 13.69 7.73L13.69 7.73L13.69 7.73Q12.99 7.73 12.64 8.29L12.64 8.29L12.64 8.29Q12.29 8.86 12.29 9.87L12.29 9.87L12.29 9.87Q12.29 10.89 12.65 11.47L12.65 11.47L12.65 11.47Q13.01 12.04 13.71 12.04L13.71 12.04ZM22.58 13.93L22.58 13.93Q21.42 13.93 20.48 13.59L20.48 13.59L20.48 13.59Q19.54 13.26 18.91 12.67L18.91 12.67L18.91 12.67Q18.75 12.50 18.65 12.24L18.65 12.24L18.65 12.24Q18.55 11.98 18.55 11.70L18.55 11.70L18.55 11.70Q18.55 11.17 18.93 10.80L18.93 10.80L18.93 10.80Q19.31 10.43 19.82 10.43L19.82 10.43L19.82 10.43Q20.16 10.43 20.44 10.59L20.44 10.59L20.44 10.59Q20.72 10.75 20.89 11.02L20.89 11.02L20.89 11.02Q21.17 11.44 21.62 11.66L21.62 11.66L21.62 11.66Q22.06 11.87 22.64 11.87L22.64 11.87L22.64 11.87Q23.48 11.87 23.90 11.56L23.90 11.56L23.90 11.56Q24.32 11.26 24.32 10.72L24.32 10.72L24.32 10.72Q24.32 10.32 24.04 10.04L24.04 10.04L24.04 10.04Q23.76 9.77 23.04 9.62L23.04 9.62L21.32 9.25L21.32 9.25Q19.84 8.93 19.12 8.17L19.12 8.17L19.12 8.17Q18.40 7.41 18.40 6.12L18.40 6.12L18.40 6.12Q18.40 5.19 18.89 4.45L18.89 4.45L18.89 4.45Q19.39 3.71 20.34 3.29L20.34 3.29L20.34 3.29Q21.29 2.87 22.61 2.87L22.61 2.87L22.61 2.87Q24.75 2.87 25.94 3.99L25.94 3.99L25.94 3.99Q26.29 4.33 26.29 4.91L26.29 4.91L26.29 4.91Q26.29 5.42 25.94 5.78L25.94 5.78L25.94 5.78Q25.58 6.15 25.07 6.15L25.07 6.15L25.07 6.15Q24.75 6.15 24.48 5.99L24.48 5.99L24.48 5.99Q24.21 5.82 24.04 5.57L24.04 5.57L24.04 5.57Q23.60 4.87 22.60 4.87L22.60 4.87L22.60 4.87Q21.83 4.87 21.46 5.15L21.46 5.15L21.46 5.15Q21.10 5.43 21.10 5.84L21.10 5.84L21.10 5.84Q21.10 6.26 21.39 6.54L21.39 6.54L21.39 6.54Q21.67 6.82 22.43 6.97L22.43 6.97L24.14 7.34L24.14 7.34Q25.70 7.67 26.42 8.46L26.42 8.46L26.42 8.46Q27.13 9.24 27.13 10.47L27.13 10.47L27.13 10.47Q27.13 11.42 26.68 12.20L26.68 12.20L26.68 12.20Q26.22 12.98 25.20 13.45L25.20 13.45L25.20 13.45Q24.18 13.93 22.58 13.93L22.58 13.93ZM30.14 13.87L30.14 13.87Q29.43 13.87 28.83 13.60L28.83 13.60L28.83 13.60Q28.24 13.33 27.89 12.80L27.89 12.80L27.89 12.80Q27.54 12.28 27.54 11.55L27.54 11.55L27.54 11.55Q27.54 10.07 28.66 9.57L28.66 9.57L28.66 9.57Q29.78 9.07 31.49 9.07L31.49 9.07L31.49 9.07Q31.81 9.07 31.96 9.09L31.96 9.09L32.44 9.10L32.44 9.10Q32.44 8.62 32.37 8.34L32.37 8.34L32.37 8.34Q32.30 8.05 32.07 7.88L32.07 7.88L32.07 7.88Q31.84 7.71 31.37 7.71L31.37 7.71L31.37 7.71Q30.73 7.71 30.42 8.12L30.42 8.12L30.42 8.12Q30.07 8.60 29.57 8.60L29.57 8.60L29.57 8.60Q29.11 8.60 28.78 8.27L28.78 8.27L28.78 8.27Q28.45 7.94 28.45 7.46L28.45 7.46L28.45 7.46Q28.45 7.18 28.57 6.94L28.57 6.94L28.57 6.94Q28.70 6.69 28.94 6.54L28.94 6.54L28.94 6.54Q29.46 6.20 30.09 6.03L30.09 6.03L30.09 6.03Q30.73 5.87 31.40 5.87L31.40 5.87L31.40 5.87Q33.14 5.87 34.04 6.61L34.04 6.61L34.04 6.61Q34.94 7.35 34.94 9.04L34.94 9.04L34.93 11.03L34.93 11.03Q34.93 11.55 34.94 11.80L34.94 11.80L34.96 12.59L34.96 12.59Q34.96 13.08 34.60 13.44L34.60 13.44L34.60 13.44Q34.24 13.80 33.74 13.80L33.74 13.80L33.74 13.80Q33.28 13.80 32.94 13.51L32.94 13.51L32.94 13.51Q32.61 13.22 32.54 12.77L32.54 12.77L32.54 12.77Q32.10 13.37 31.52 13.62L31.52 13.62L31.52 13.62Q30.94 13.87 30.14 13.87L30.14 13.87ZM31.00 12.21L31.00 12.21Q31.68 12.21 32.07 11.75L32.07 11.75L32.07 11.75Q32.45 11.28 32.45 10.58L32.45 10.58L32.45 10.47L31.63 10.46L31.63 10.46Q30.09 10.46 30.09 11.40L30.09 11.40L30.09 11.40Q30.09 11.77 30.35 11.99L30.35 11.99L30.35 11.99Q30.60 12.21 31.00 12.21L31.00 12.21ZM37.49 13.80L37.49 13.80Q36.96 13.80 36.58 13.43L36.58 13.43L36.58 13.43Q36.20 13.05 36.20 12.52L36.20 12.52L36.20 3.98L36.20 3.98Q36.20 3.44 36.58 3.07L36.58 3.07L36.58 3.07Q36.96 2.69 37.51 2.69L37.51 2.69L37.51 2.69Q38.04 2.69 38.42 3.07L38.42 3.07L38.42 3.07Q38.79 3.44 38.79 3.98L38.79 3.98L38.79 8.81L40.91 6.31L40.91 6.31Q41.20 5.95 41.72 5.95L41.72 5.95L41.72 5.95Q42.15 5.95 42.46 6.26L42.46 6.26L42.46 6.26Q42.77 6.57 42.77 7L42.77 7L42.77 7Q42.77 7.39 42.49 7.71L42.49 7.71L41.30 9.03L43.11 11.94L43.11 11.94Q43.29 12.24 43.29 12.59L43.29 12.59L43.29 12.59Q43.29 13.09 42.93 13.45L42.93 13.45L42.93 13.45Q42.57 13.80 42.07 13.80L42.07 13.80L42.07 13.80Q41.73 13.80 41.45 13.64L41.45 13.64L41.45 13.64Q41.17 13.48 41.02 13.22L41.02 13.22L39.47 10.65L38.79 11.41L38.79 12.52L38.79 12.52Q38.79 13.05 38.42 13.43L38.42 13.43L38.42 13.43Q38.04 13.80 37.49 13.80L37.49 13.80ZM47.66 13.90L47.66 13.90Q46.51 13.90 45.60 13.41L45.60 13.41L45.60 13.41Q44.69 12.92 44.17 12.01L44.17 12.01L44.17 12.01Q43.65 11.10 43.65 9.90L43.65 9.90L43.65 9.90Q43.65 8.74 44.14 7.82L44.14 7.82L44.14 7.82Q44.62 6.90 45.51 6.38L45.51 6.38L45.51 6.38Q46.41 5.87 47.60 5.87L47.60 5.87L47.60 5.87Q48.80 5.87 49.67 6.38L49.67 6.38L49.67 6.38Q50.54 6.89 50.98 7.71L50.98 7.71L50.98 7.71Q51.42 8.54 51.42 9.44L51.42 9.44L51.42 9.44Q51.42 10.01 51.16 10.29L51.16 10.29L51.16 10.29Q50.89 10.57 50.27 10.57L50.27 10.57L46.14 10.57L46.14 10.57Q46.21 11.26 46.63 11.66L46.63 11.66L46.63 11.66Q47.05 12.07 47.71 12.07L47.71 12.07L47.71 12.07Q48.10 12.07 48.37 11.94L48.37 11.94L48.37 11.94Q48.64 11.80 48.85 11.59L48.85 11.59L48.85 11.59Q49.04 11.41 49.20 11.32L49.20 11.32L49.20 11.32Q49.36 11.23 49.60 11.23L49.60 11.23L49.60 11.23Q50.04 11.23 50.34 11.54L50.34 11.54L50.34 11.54Q50.65 11.86 50.65 12.31L50.65 12.31L50.65 12.31Q50.65 12.80 50.23 13.15L50.23 13.15L50.23 13.15Q49.85 13.47 49.15 13.69L49.15 13.69L49.15 13.69Q48.45 13.90 47.66 13.90L47.66 13.90ZM46.16 9.04L48.92 9.04L48.92 9.04Q48.89 8.37 48.52 7.98L48.52 7.98L48.52 7.98Q48.15 7.59 47.56 7.59L47.56 7.59L47.56 7.59Q46.97 7.59 46.60 7.98L46.60 7.98L46.60 7.98Q46.23 8.37 46.16 9.04L46.16 9.04Z"></path></g><!----><!----></svg>