<svg data-v-423bf9ae="" xmlns="http://www.w3.org/2000/svg" viewBox="0 0 358 90" class="iconLeft"><!----><!----><!----><g data-v-423bf9ae="" id="d5587476-3ef1-4268-b3ca-8c7731700abe" fill="white" transform="matrix(5.639097562403148,0,0,5.639097562403148,116.6976187612041,13.87218018759149)"><path d="M5.43 8.05C5.43 9.27 4.77 10.08 3.22 10.08C2.20 10.08 1.40 9.73 0.66 9.35L0.66 10.32C1.32 10.63 2.34 10.84 3.21 10.84C5.29 10.84 6.52 9.67 6.52 8.06C6.52 6.72 5.98 5.94 4.27 5.17L3.35 4.76C2.18 4.26 1.83 3.67 1.83 3.07C1.83 1.86 2.56 1.30 3.86 1.30C4.77 1.30 5.39 1.58 6.08 1.92L6.08 0.98C5.45 0.70 4.68 0.55 3.84 0.55C2.00 0.55 0.81 1.55 0.81 3.16C0.81 4.47 1.46 5.21 2.90 5.84L3.85 6.24C4.94 6.72 5.43 7.28 5.43 8.05ZM14.20 7.10C14.20 4.52 13.27 3.40 11.20 3.40C9.21 3.40 8.01 4.69 8.01 7.11C8.01 9.53 9.07 10.81 11.07 10.81C13.26 10.81 14.20 9.42 14.20 7.10ZM13.10 7.08C13.10 8.96 12.60 10.19 11.13 10.19C9.77 10.19 9.10 9.14 9.10 7.13C9.10 5.00 9.87 4.03 11.17 4.03C12.54 4.03 13.10 4.98 13.10 7.08ZM20.33 8.05C20.33 9.27 19.67 10.08 18.12 10.08C17.09 10.08 16.30 9.73 15.55 9.35L15.55 10.32C16.21 10.63 17.23 10.84 18.10 10.84C20.19 10.84 21.42 9.67 21.42 8.06C21.42 6.72 20.87 5.94 19.17 5.17L18.24 4.76C17.08 4.26 16.73 3.67 16.73 3.07C16.73 1.86 17.46 1.30 18.76 1.30C19.67 1.30 20.29 1.58 20.97 1.92L20.97 0.98C20.34 0.70 19.57 0.55 18.73 0.55C16.90 0.55 15.71 1.55 15.71 3.16C15.71 4.47 16.35 5.21 17.79 5.84L18.75 6.24C19.84 6.72 20.33 7.28 20.33 8.05ZM27.54 10.64L28.56 10.64C28.39 10.11 28.38 9.56 28.38 9.09L28.38 5.80C28.38 4.79 28.18 4.33 27.82 3.95C27.38 3.51 26.68 3.40 25.98 3.40C25.30 3.40 24.39 3.56 23.65 3.91L23.65 4.72C24.51 4.24 25.27 4.14 25.86 4.14C26.38 4.14 26.78 4.28 27.02 4.59C27.26 4.90 27.34 5.39 27.34 5.91L27.34 6.54C27.09 6.52 26.73 6.51 26.46 6.51C24.01 6.51 22.97 7.28 22.97 8.65C22.97 9.90 23.80 10.81 25.23 10.81C26.35 10.81 27.01 10.32 27.37 9.66C27.38 9.93 27.47 10.40 27.54 10.64ZM27.34 7.11L27.34 8.11C27.34 8.57 27.27 9.03 27.01 9.34C26.64 9.79 26.10 10.09 25.44 10.09C24.54 10.09 24.04 9.52 24.04 8.62C24.04 7.78 24.64 7.10 26.66 7.10C26.88 7.10 27.15 7.10 27.34 7.11ZM31.75 10.64L31.75 6.92L34.99 10.64L36.36 10.64C34.10 8.02 33.42 7.27 32.82 6.61C33.26 6.20 33.95 5.57 35.98 3.58L34.86 3.58L31.75 6.73L31.75 0.20L30.70 0.20L30.70 10.64ZM42.71 7.10L42.71 6.82C42.71 6.06 42.64 5.33 42.38 4.76C41.99 3.93 41.40 3.40 39.98 3.40C38.05 3.40 36.95 4.72 36.95 7.08C36.95 9.67 38.04 10.82 40.11 10.82C41.23 10.82 41.94 10.56 42.43 10.29L42.43 9.49C41.86 9.80 41.26 10.11 40.28 10.11C38.84 10.11 38.04 9.09 38.02 7.10ZM41.58 6.51L38.05 6.51C38.11 4.61 39.05 4.02 39.94 4.02C41.33 4.02 41.58 5.00 41.58 6.51Z"></path></g><!----><g data-v-423bf9ae="" id="43ecad07-73a5-4095-b1d4-d5eda8ab0855" transform="matrix(1.1747523371103263,0,0,1.1747523371103263,-2.697100828135781,-7.2134761051378575)" stroke="none" fill="white"><path clip-rule="evenodd" d="M54.932 32.672h-.454c-.834 0-1.644.038-2.425.113-3.208.303-6.062 1.099-8.562 2.387-.253.151-.518.303-.795.455v-.038c-2.804 1.667-4.281 3.624-4.433 5.871v.191c.152 2.222 1.629 4.155 4.433 5.796.126.075.252.153.378.227a21.9 21.9 0 0 0 3.751 1.593 26.36 26.36 0 0 0 4.394.945c1.188.127 2.425.189 3.713.189 1.112 0 2.173-.049 3.182-.149.178-.024.342-.04.493-.04 1.566-.2 3.044-.517 4.432-.945.81-.254 1.579-.543 2.312-.87.48-.229.947-.467 1.401-.723.151-.073.278-.151.38-.227 2.196-1.288 3.598-2.74 4.205-4.357a5.39 5.39 0 0 0 .227-1.553v-.113c-.176-2.223-1.652-4.155-4.432-5.796-3.36-1.971-7.426-2.956-12.2-2.956zm28.906 46.861c.529.329.884.785 1.062 1.364a2.087 2.087 0 0 1-.229 1.555 2.254 2.254 0 0 1-1.286 1.023 2.245 2.245 0 0 1-1.668-.191l-21.33-11.441a34.6 34.6 0 0 1-5.455.418c-3.461 0-6.618-.453-9.471-1.363a24.083 24.083 0 0 1-5.077-2.198c-4.319-2.576-6.529-5.682-6.63-9.318v-.341V58.7v-1.099L6.818 43.165c-.303-.177-.607-.34-.91-.493a69.635 69.635 0 0 0-1.023-.644l.038-.038a4.504 4.504 0 0 1-1.97-2.728c-.328-1.313-.164-2.538.493-3.674.657-1.162 1.629-1.92 2.917-2.273 1.188-.303 2.311-.203 3.373.303v.038l.682.378c.126.051.252.114.379.19.303.177.593.354.871.53l72.17 44.779zm-7.766-36.178V55.478c-.052 2.374-.127 4.103-.228 5.19l11.819 13.865c.43.454.632.986.605 1.591a2.086 2.086 0 0 1-.719 1.439c-.43.405-.935.594-1.515.567a2.25 2.25 0 0 1-1.555-.681l-11.29-11.63c-.757.758-1.666 1.49-2.728 2.197L33.678 45.211v-3.485h.076v-.189-.151c-.025-3.763 2.147-6.958 6.516-9.585L25.381 16.457l-.757-.758-.758-.909.038-.038c-.758-.909-1.099-1.969-1.023-3.182.076-1.338.606-2.462 1.592-3.372.959-.884 2.108-1.3 3.447-1.25 1.212.076 2.26.517 3.145 1.326h-.038c.177.202.354.392.53.568l.303.303c.228.253.455.518.682.796l16.025 18.753c1.995-.379 4.117-.568 6.364-.568 5.657 0 10.493 1.2 14.511 3.599 3.813 2.222 5.984 4.887 6.516 7.994.025.151.063 1.363.114 3.636zm-21.254-8.751c2.728.025 5.052.619 6.972 1.781 2.018 1.162 3.03 2.576 3.03 4.243 0 .43-.076.833-.229 1.213-.327 1.06-1.135 2.007-2.423 2.841l-.378.228c-.759.43-1.579.795-2.463 1.098-1.415.431-2.968.645-4.66.645h-.113c-1.744 0-3.321-.214-4.736-.645a15.787 15.787 0 0 1-2.5-1.098c-1.945-1.163-2.943-2.565-2.993-4.207v-.151c.025-1.111.518-2.122 1.478-3.03a7.354 7.354 0 0 1 1.516-1.137c1.768-1.035 3.863-1.616 6.288-1.743.303-.025.619-.038.948-.038h.263z"></path></g><!----></svg>