<svg data-v-423bf9ae="" xmlns="http://www.w3.org/2000/svg" viewBox="0 0 237.12404819676235 60" class="font"><!----><!----><!----><g data-v-423bf9ae="" id="34943aaa-a32a-486b-b101-56a7b97788fb" fill="white" transform="matrix(5.639097562403148,0,0,5.639097562403148,-3.7218072031513714,-1.1278198124085108)"><path d="M5.43 8.05C5.43 9.27 4.77 10.08 3.22 10.08C2.20 10.08 1.40 9.73 0.66 9.35L0.66 10.32C1.32 10.63 2.34 10.84 3.21 10.84C5.29 10.84 6.52 9.67 6.52 8.06C6.52 6.72 5.98 5.94 4.27 5.17L3.35 4.76C2.18 4.26 1.83 3.67 1.83 3.07C1.83 1.86 2.56 1.30 3.86 1.30C4.77 1.30 5.39 1.58 6.08 1.92L6.08 0.98C5.45 0.70 4.68 0.55 3.84 0.55C2.00 0.55 0.81 1.55 0.81 3.16C0.81 4.47 1.46 5.21 2.90 5.84L3.85 6.24C4.94 6.72 5.43 7.28 5.43 8.05ZM14.20 7.10C14.20 4.52 13.27 3.40 11.20 3.40C9.21 3.40 8.01 4.69 8.01 7.11C8.01 9.53 9.07 10.81 11.07 10.81C13.26 10.81 14.20 9.42 14.20 7.10ZM13.10 7.08C13.10 8.96 12.60 10.19 11.13 10.19C9.77 10.19 9.10 9.14 9.10 7.13C9.10 5.00 9.87 4.03 11.17 4.03C12.54 4.03 13.10 4.98 13.10 7.08ZM20.33 8.05C20.33 9.27 19.67 10.08 18.12 10.08C17.09 10.08 16.30 9.73 15.55 9.35L15.55 10.32C16.21 10.63 17.23 10.84 18.10 10.84C20.19 10.84 21.42 9.67 21.42 8.06C21.42 6.72 20.87 5.94 19.17 5.17L18.24 4.76C17.08 4.26 16.73 3.67 16.73 3.07C16.73 1.86 17.46 1.30 18.76 1.30C19.67 1.30 20.29 1.58 20.97 1.92L20.97 0.98C20.34 0.70 19.57 0.55 18.73 0.55C16.90 0.55 15.71 1.55 15.71 3.16C15.71 4.47 16.35 5.21 17.79 5.84L18.75 6.24C19.84 6.72 20.33 7.28 20.33 8.05ZM27.54 10.64L28.56 10.64C28.39 10.11 28.38 9.56 28.38 9.09L28.38 5.80C28.38 4.79 28.18 4.33 27.82 3.95C27.38 3.51 26.68 3.40 25.98 3.40C25.30 3.40 24.39 3.56 23.65 3.91L23.65 4.72C24.51 4.24 25.27 4.14 25.86 4.14C26.38 4.14 26.78 4.28 27.02 4.59C27.26 4.90 27.34 5.39 27.34 5.91L27.34 6.54C27.09 6.52 26.73 6.51 26.46 6.51C24.01 6.51 22.97 7.28 22.97 8.65C22.97 9.90 23.80 10.81 25.23 10.81C26.35 10.81 27.01 10.32 27.37 9.66C27.38 9.93 27.47 10.40 27.54 10.64ZM27.34 7.11L27.34 8.11C27.34 8.57 27.27 9.03 27.01 9.34C26.64 9.79 26.10 10.09 25.44 10.09C24.54 10.09 24.04 9.52 24.04 8.62C24.04 7.78 24.64 7.10 26.66 7.10C26.88 7.10 27.15 7.10 27.34 7.11ZM31.75 10.64L31.75 6.92L34.99 10.64L36.36 10.64C34.10 8.02 33.42 7.27 32.82 6.61C33.26 6.20 33.95 5.57 35.98 3.58L34.86 3.58L31.75 6.73L31.75 0.20L30.70 0.20L30.70 10.64ZM42.71 7.10L42.71 6.82C42.71 6.06 42.64 5.33 42.38 4.76C41.99 3.93 41.40 3.40 39.98 3.40C38.05 3.40 36.95 4.72 36.95 7.08C36.95 9.67 38.04 10.82 40.11 10.82C41.23 10.82 41.94 10.56 42.43 10.29L42.43 9.49C41.86 9.80 41.26 10.11 40.28 10.11C38.84 10.11 38.04 9.09 38.02 7.10ZM41.58 6.51L38.05 6.51C38.11 4.61 39.05 4.02 39.94 4.02C41.33 4.02 41.58 5.00 41.58 6.51Z"></path></g><!----><!----></svg>