<svg data-v-423bf9ae="" xmlns="http://www.w3.org/2000/svg" viewBox="0 0 272.30321245519053 60" class="font"><!----><!----><!----><g data-v-423bf9ae="" id="f4740464-4a8f-4eeb-9445-b3a5496d01e7" fill="white" transform="matrix(5.830903811703725,0,0,5.830903811703725,-6.530615660241892,-27.1720113496512)"><path d="M1.26 9.70L2.88 10.64L6.37 10.64L6.37 13.69L2.52 13.69L2.52 12.57L1.12 12.57L1.12 14.01L2.74 14.95L6.15 14.95L7.77 14.01L7.77 10.18L6.15 9.24L2.66 9.24L2.66 6.27L6.37 6.27L6.37 7.39L7.77 7.39L7.77 5.95L6.15 5.01L2.88 5.01L1.26 5.95ZM16.10 14.01L16.10 8.75L14.48 7.81L11.77 7.81L10.15 8.75L10.15 14.01L11.77 14.95L14.48 14.95ZM11.51 9.03L14.74 9.03L14.74 13.73L11.51 13.73ZM18.48 9.70L20.10 10.64L23.59 10.64L23.59 13.69L19.74 13.69L19.74 12.57L18.34 12.57L18.34 14.01L19.96 14.95L23.37 14.95L24.99 14.01L24.99 10.18L23.37 9.24L19.88 9.24L19.88 6.27L23.59 6.27L23.59 7.39L24.99 7.39L24.99 5.95L23.37 5.01L20.10 5.01L18.48 5.95ZM28.45 12.01L31.26 12.01L31.26 13.73L28.45 13.73ZM28.71 14.95L30.27 14.95L31.26 14.38L32.26 14.95L32.62 14.95L32.62 8.82L31.00 7.88L27.79 7.88L27.79 9.10L31.26 9.10L31.26 10.79L28.71 10.79L27.09 11.73L27.09 14.01ZM36.22 4.66L34.86 4.66L34.86 14.88L36.22 14.88L36.22 13.22L37.24 12.01L39.51 14.88L41.17 14.88L38.05 11.05L40.75 7.88L39.13 7.88L36.25 11.37L36.22 11.37ZM47.82 13.66L43.65 13.66L43.65 11.86L47.82 11.86L47.82 8.75L46.20 7.81L43.92 7.81L42.29 8.75L42.29 13.94L43.92 14.88L47.82 14.88ZM43.65 9.03L46.47 9.03L46.47 10.64L43.65 10.64Z"></path></g><!----><!----></svg>